<svg width="800" height="800" viewBox="0 0 800 800" fill="none" xmlns="http://www.w3.org/2000/svg">
<rect width="800" height="800" fill="transparent"/>
<g opacity="0.18">
<circle cx="42" cy="66" r="1.2" fill="white"/>
<circle cx="144" cy="118" r="0.9" fill="white"/>
<circle cx="264" cy="46" r="1.4" fill="white"/>
<circle cx="332" cy="140" r="1" fill="white"/>
<circle cx="458" cy="82" r="1.2" fill="white"/>
<circle cx="566" cy="128" r="0.9" fill="white"/>
<circle cx="704" cy="60" r="1.1" fill="white"/>
<circle cx="90" cy="220" r="1.1" fill="white"/>
<circle cx="186" cy="276" r="0.8" fill="white"/>
<circle cx="306" cy="236" r="1.3" fill="white"/>
<circle cx="422" cy="302" r="0.9" fill="white"/>
<circle cx="548" cy="248" r="1.2" fill="white"/>
<circle cx="666" cy="284" r="1" fill="white"/>
<circle cx="758" cy="226" r="0.8" fill="white"/>
<circle cx="54" cy="396" r="1.4" fill="white"/>
<circle cx="168" cy="362" r="0.9" fill="white"/>
<circle cx="286" cy="430" r="1.1" fill="white"/>
<circle cx="372" cy="384" r="0.8" fill="white"/>
<circle cx="490" cy="446" r="1.3" fill="white"/>
<circle cx="616" cy="406" r="0.9" fill="white"/>
<circle cx="714" cy="464" r="1.1" fill="white"/>
<circle cx="104" cy="566" r="1.2" fill="white"/>
<circle cx="232" cy="522" r="0.8" fill="white"/>
<circle cx="328" cy="610" r="1.3" fill="white"/>
<circle cx="460" cy="556" r="0.9" fill="white"/>
<circle cx="586" cy="618" r="1.1" fill="white"/>
<circle cx="694" cy="548" r="0.8" fill="white"/>
<circle cx="84" cy="714" r="1" fill="white"/>
<circle cx="196" cy="676" r="1.3" fill="white"/>
<circle cx="314" cy="748" r="0.9" fill="white"/>
<circle cx="432" cy="692" r="1.1" fill="white"/>
<circle cx="548" cy="760" r="0.8" fill="white"/>
<circle cx="682" cy="700" r="1.2" fill="white"/>
<circle cx="750" cy="744" r="0.9" fill="white"/>
</g>
</svg>
